<svg version="1.0" xmlns="http://www.w3.org/2000/svg"
     width="300.000000pt" height="225.000000pt" viewBox="0 0 300.000000 225.000000"
     preserveAspectRatio="xMidYMid meet">
    <g transform="translate(0.000000,225.000000) scale(0.100000,-0.100000)"
       fill="#000000" stroke="none">
        <path d="M473 1310 c-115 -55 -133 -78 -91 -115 25 -21 25 -23 9 -49 -13 -22
-14 -29 -3 -47 12 -18 11 -24 -8 -44 -35 -38 -19 -60 78 -109 131 -65 133 -66
253 -7 57 27 107 47 111 45 4 -3 8 -18 8 -33 0 -15 8 -36 19 -45 16 -15 20
-15 33 -2 8 8 20 11 27 6 15 -9 159 -6 182 4 10 4 20 3 24 -3 7 -12 80 -14
110 -2 10 4 28 3 40 -3 11 -6 49 -9 83 -8 68 4 86 18 96 76 7 38 16 45 12 10
-1 -16 6 -41 15 -55 15 -22 25 -25 64 -24 34 2 51 8 70 29 32 35 58 33 72 -4
11 -29 13 -30 81 -30 49 0 75 5 86 15 8 8 21 15 29 15 8 0 20 -7 27 -15 17
-20 79 -19 102 2 17 15 19 15 38 -2 19 -17 21 -17 40 0 11 10 20 28 20 40 0
24 22 49 33 38 4 -3 7 -16 7 -29 0 -12 13 -33 29 -47 26 -21 35 -24 71 -17 22
4 43 10 47 13 3 4 14 2 25 -4 15 -8 24 -7 37 5 21 19 35 20 50 3 15 -19 211
-17 234 2 26 21 24 181 -2 205 -21 20 -40 14 -65 -18 l-18 -24 -27 30 c-24 27
-30 29 -49 19 -15 -8 -28 -9 -41 -2 -31 17 -89 19 -110 5 -16 -12 -25 -11 -56
2 -29 12 -44 13 -70 4 -18 -6 -44 -8 -56 -5 -13 3 -62 7 -108 8 -65 2 -86 7
-96 20 -7 9 -18 17 -25 17 -8 0 -10 7 -5 23 4 12 7 34 7 49 -1 14 5 32 13 38
8 7 15 21 15 31 0 36 -85 51 -121 22 -13 -11 -21 -11 -45 2 -36 18 -61 19 -94
1 -21 -12 -29 -12 -52 0 -35 18 -68 18 -95 -1 -18 -13 -25 -13 -47 -1 -16 8
-43 11 -69 8 -23 -3 -57 -5 -75 -4 -25 0 -37 -6 -54 -28 l-21 -28 -24 29 c-24
28 -56 38 -67 20 -4 -5 -20 -2 -38 6 -26 13 -39 14 -74 5 -29 -8 -52 -9 -68
-2 -17 6 -36 5 -56 -2 -23 -8 -38 -7 -58 1 -22 11 -28 10 -39 -5 -12 -16 -18
-45 -14 -66 2 -15 -18 -8 -107 37 -49 25 -102 45 -118 44 -16 0 -75 -23 -131
-49z m241 -18 c50 -27 91 -53 93 -58 2 -5 -20 -22 -49 -36 l-53 -26 48 -22
c26 -11 47 -23 47 -26 0 -3 -19 -13 -42 -23 l-43 -18 48 -24 c26 -12 47 -28
47 -34 0 -6 -48 -35 -107 -64 l-108 -53 -107 53 c-60 28 -108 56 -108 60 0 5
21 20 48 33 l47 25 -42 17 c-24 9 -43 20 -43 24 0 3 21 15 48 26 l47 20 -53
28 c-29 15 -52 31 -50 36 4 12 208 110 228 110 8 0 55 -22 104 -48z m164 -173
c-4 -272 -22 -275 -26 -4 -2 202 0 237 19 218 6 -6 8 -89 7 -214z m132 197 c0
-8 -8 -12 -23 -9 -35 7 -48 -17 -45 -84 l3 -58 38 -3 c38 -3 49 -15 21 -26
-27 -10 -52 -7 -68 10 -20 19 -23 153 -4 172 17 17 78 16 78 -2z m128 2 c7 -7
12 -43 12 -90 0 -75 -1 -79 -26 -90 -21 -10 -31 -9 -52 3 -25 14 -27 20 -30
88 -2 45 2 78 9 87 14 17 71 18 87 2z m101 -69 l25 -74 25 78 c36 110 51 103
51 -24 0 -73 -3 -100 -12 -97 -7 3 -11 27 -10 69 l1 64 -22 -63 c-12 -35 -27
-64 -32 -65 -6 -1 -20 27 -32 63 l-22 65 0 -67 c-1 -38 -5 -68 -11 -68 -6 0
-10 40 -10 101 0 122 12 127 49 18z m243 64 c20 -18 24 -64 8 -94 -8 -14 -21
-19 -50 -19 -39 0 -40 -1 -40 -35 0 -19 -4 -35 -10 -35 -6 0 -10 40 -10 100
l0 100 42 0 c24 0 49 -7 60 -17z m148 -2 c5 -11 10 -49 10 -85 0 -56 -3 -67
-22 -80 -55 -39 -98 -3 -98 82 0 73 18 102 65 102 24 0 38 -6 45 -19z m140 5
c0 -9 -8 -12 -25 -8 -29 5 -56 -13 -49 -33 3 -8 21 -19 39 -25 46 -15 69 -43
61 -75 -13 -50 -91 -58 -120 -13 -16 27 0 32 24 8 12 -12 28 -19 37 -16 8 3
19 6 24 6 5 0 9 11 9 25 0 20 -10 29 -47 47 -52 25 -66 54 -38 82 20 20 85 22
85 2z m160 4 c0 -5 -18 -10 -40 -10 -38 0 -40 -2 -40 -30 0 -25 4 -30 25 -30
14 0 25 -4 25 -10 0 -5 -11 -10 -25 -10 -22 0 -25 -4 -25 -34 0 -33 2 -35 38
-38 52 -4 42 -23 -13 -23 l-45 -1 0 98 0 98 50 0 c28 0 50 -4 50 -10z m-922
-79 c1 -16 -4 -34 -13 -41 -12 -10 -15 -8 -19 12 -8 39 -3 58 14 58 10 0 16
-10 18 -29z m-178 -71 c0 -28 -15 -32 -34 -11 -17 18 -16 20 1 29 22 13 33 7
33 -18z m651 -1 c23 -12 16 -29 -12 -29 -12 0 -19 7 -19 20 0 23 4 24 31 9z
m339 -65 c0 -26 -32 -113 -45 -124 -18 -15 -25 10 -21 72 3 52 2 50 31 66 23
12 35 7 35 -14z m-849 -71 c23 -65 28 -73 34 -52 20 68 49 139 56 139 5 0 9
-45 9 -100 0 -60 -4 -100 -10 -100 -6 0 -10 28 -11 63 l-1 62 -21 -62 c-23
-70 -41 -80 -51 -30 -4 17 -13 46 -22 62 -14 29 -14 28 -9 -32 4 -51 2 -63
-10 -63 -12 0 -15 17 -15 93 0 135 10 139 51 20z m159 8 c0 -83 11 -106 47
-99 15 3 19 17 23 87 3 55 9 86 18 89 9 3 12 -17 12 -79 0 -93 -13 -119 -61
-119 -48 0 -59 22 -59 116 0 49 4 84 10 84 6 0 10 -33 10 -79z m160 -11 l0
-90 40 0 c22 0 40 -4 40 -10 0 -5 -24 -10 -54 -10 l-53 0 -1 92 c0 51 2 96 4
100 16 25 24 -3 24 -82z m170 74 c0 -8 -10 -14 -25 -14 -25 0 -25 -1 -25 -85
0 -50 -4 -85 -10 -85 -6 0 -10 35 -10 85 0 84 0 85 -25 85 -22 0 -32 10 -21
21 3 2 30 5 60 5 42 1 56 -2 56 -12z m50 -84 c0 -60 -4 -100 -10 -100 -6 0
-10 35 -10 85 0 50 -4 85 -10 85 -5 0 -10 7 -10 15 0 8 9 15 20 15 19 0 20 -7
20 -100z m210 10 l0 -90 44 0 43 0 25 88 c15 51 30 87 38 87 7 0 24 -39 41
-95 16 -52 29 -96 29 -97 0 -2 -6 -3 -14 -3 -7 0 -16 14 -19 30 -6 25 -11 30
-37 30 -26 0 -31 -5 -36 -30 -6 -30 -7 -30 -70 -30 l-64 0 0 100 c0 60 4 100
10 100 6 0 10 -37 10 -90z m310 74 c0 -8 -10 -14 -26 -14 l-27 0 6 -85 c5 -70
4 -85 -8 -85 -12 0 -15 17 -15 85 0 78 -2 85 -20 85 -11 0 -20 6 -20 14 0 10
15 14 55 14 41 0 55 -3 55 -14z m110 1 c0 -10 -11 -15 -35 -15 -31 0 -35 -3
-35 -25 0 -20 5 -25 25 -25 18 0 23 -4 18 -16 -3 -9 -13 -14 -24 -11 -17 5
-19 -1 -19 -44 0 -27 -4 -49 -10 -49 -6 0 -10 40 -10 100 l0 100 45 0 c33 0
45 -4 45 -15z m124 -1 c20 -19 23 -153 4 -172 -7 -7 -26 -12 -43 -12 -47 0
-55 15 -55 102 0 63 3 79 18 87 25 15 58 13 76 -5z m156 -4 c22 -22 28 -84 9
-96 -10 -6 -7 -30 7 -68 3 -9 1 -16 -5 -16 -7 0 -17 14 -22 30 -9 24 -17 30
-40 30 -26 0 -29 -4 -29 -30 0 -16 -4 -30 -10 -30 -6 0 -10 40 -10 100 l0 100
40 0 c27 0 47 -7 60 -20z m101 -64 l27 -78 27 81 c15 45 31 81 36 81 5 0 9
-45 9 -100 0 -60 -4 -100 -10 -100 -5 0 -10 28 -11 63 l-1 62 -20 -62 c-22
-69 -42 -81 -52 -30 -4 17 -13 46 -21 62 -14 29 -14 27 -9 -32 5 -54 4 -63
-10 -63 -14 0 -16 15 -16 101 0 123 13 127 51 15z m-863 62 c17 -17 15 -78 -5
-100 -10 -11 -30 -18 -51 -18 -33 0 -34 -1 -28 -30 4 -22 2 -30 -9 -30 -12 0
-15 18 -15 95 l0 95 48 0 c26 0 53 -5 60 -12z m-293 -76 c-3 -8 -5 -20 -5 -28
0 -8 -9 -14 -20 -14 -18 0 -20 7 -20 57 l0 56 25 -29 c14 -16 23 -35 20 -42z"/>
        <path d="M510 1273 l-95 -45 91 -45 91 -46 87 48 c48 26 86 48 84 50 -2 1 -39
21 -83 42 l-80 40 -95 -44z m150 -11 c18 -11 35 -23 37 -29 4 -12 -77 -53
-104 -53 -27 0 -104 41 -97 52 9 14 85 48 109 48 11 0 36 -8 55 -18z"/>
        <path d="M655 1044 c-49 -29 -63 -30 -118 -3 l-43 21 -39 -20 -39 -20 90 -45
91 -45 74 40 c41 22 80 43 88 48 11 6 4 13 -25 28 l-40 20 -39 -24z m-32 -49
l32 7 -24 -17 c-19 -15 -29 -16 -62 -6 -49 15 -61 33 -13 20 19 -6 50 -7 67
-4z"/>
        <path d="M1067 1304 c-4 -4 -7 -36 -7 -70 0 -52 3 -65 19 -73 13 -7 23 -7 35
2 14 10 16 26 14 77 -3 61 -4 65 -28 68 -14 2 -29 0 -33 -4z"/>
        <path d="M1400 1264 c0 -45 0 -45 31 -42 41 4 57 28 41 62 -9 20 -19 26 -42
26 -29 0 -30 -2 -30 -46z"/>
        <path d="M1557 1303 c-4 -3 -7 -37 -7 -74 0 -57 3 -67 19 -72 37 -9 51 10 51
71 0 32 -5 63 -12 70 -13 13 -41 16 -51 5z"/>
        <path d="M1860 1058 c0 -7 -3 -23 -6 -35 -5 -19 -2 -23 16 -23 18 0 21 4 16
23 -3 12 -6 28 -6 35 0 6 -4 12 -10 12 -5 0 -10 -6 -10 -12z"/>
        <path d="M2201 1086 c-7 -9 -11 -40 -9 -78 3 -63 3 -63 33 -63 30 0 30 0 33
63 3 63 -7 92 -33 92 -7 0 -18 -6 -24 -14z"/>
        <path d="M2340 1047 l0 -43 35 4 c37 4 51 26 40 62 -5 15 -15 20 -41 20 -33 0
-34 -1 -34 -43z"/>
        <path d="M1570 1050 l0 -41 38 3 c35 3 37 5 37 38 0 33 -2 35 -37 38 l-38 3 0
-41z"/>
    </g>
</svg>
